<svg xml:space="preserve" width="147.491" height="232.43" xmlns="http://www.w3.org/2000/svg">
    <path d="M200.74 337s-8.6-56.4 13.4-77 50.71-29.6 54.96-27.8v11.65s-6.56-.25-11.96 5.55c-5.4 5.8-6.25 14-6 18.6.25 4.6-1.09 38.8.96 43.67 2.04 4.87 5.18 9.78 9.03 11.61 3.85 1.83 8.58 3.12 8.3 5.52-.29 2.4-.33 8.2-.33 8.2z" style="fill:#0f0" transform="translate(-195.349 -228.35)" />
    <path d="M342.84 344.57c-.63 17.01.74 34.05-.87 51.05-3.39 35.96-35.89 65.16-72.58 65.16s-69.96-29.16-72.35-65.19a771.01 771.01 0 0 1 0-102.08c2.38-36.01 35.66-65.17 72.36-65.16 36.71 0 69.2 29.21 72.58 65.16 1.59 17.01.23 34.05.86 51.06zm-70.31-19.01c-1.39 7.54 1.67 9.53 9.2 9.21 15.66-.67 31.36-.36 47.04-.11 4.72.07 6.49-1.27 6.3-6.17-.35-8.87.12-17.77-.15-26.64-1.04-33.24-23.19-58.74-55.04-64.7-7.13-1.34-7.98 1.08-7.34 6.7h-6.28c-1.38-2.41 3.33-8.07-4.24-7.23-25.69 2.87-48.6 22.3-55.52 47.47-4.23 15.39-2.24 31.14-2.63 46.75-.12 4.69 3.48 3.69 6.15 3.7 15.68.06 31.39-.43 47.04.23 7.51.32 10.61-1.64 9.21-9.2 2.08-1.47 4.17-1.46 6.26-.01zm-2.92 16.77c-19.93 0-39.86.14-59.78-.1-4.86-.06-6.83.85-6.65 6.3.44 13.35.04 26.72.18 40.08.35 33.2 26.33 60.78 60.33 64.17 32.62 3.26 64.01-19.9 70.26-52.12 3.37-17.38.64-35.02 1.64-52.51.29-5.11-1.59-5.98-6.2-5.93-19.93.24-39.86.11-59.78.11z" style="fill:#fff" transform="translate(-195.349 -228.35)" />
    <path d="M272.54 243.85c11.35 3.68 15.59 11.64 15.08 23.29-.52 11.68-.5 23.41 0 35.09.5 11.64-3.85 19.56-15.09 23.33-2.09-1.45-4.17-1.46-6.26.01-11.22-3.79-15.59-11.7-15.08-23.34.51-11.68.52-23.41 0-35.08-.52-11.66 3.74-19.6 15.07-23.3h6.28z" style="fill:none;stroke:#fff;stroke-width:5;stroke-miterlimit:10" transform="translate(-195.349 -228.35)" />
</svg>