<?xml version="1.0" standalone="no"?>
<!DOCTYPE svg PUBLIC "-//W3C//DTD SVG 20010904//EN"
 "http://www.w3.org/TR/2001/REC-SVG-20010904/DTD/svg10.dtd">
<svg version="1.0" xmlns="http://www.w3.org/2000/svg"
 width="512.000000pt" height="512.000000pt" viewBox="0 0 512.000000 512.000000"
 preserveAspectRatio="xMidYMid meet">
<metadata>
Created by potrace 1.14, written by Peter Selinger 2001-2017
</metadata>
<g transform="translate(0.000000,512.000000) scale(0.100000,-0.100000)"
fill="#000000" stroke="none">
<path d="M0 2560 l0 -2560 2560 0 2560 0 0 2560 0 2560 -2560 0 -2560 0 0
-2560z m2979 1525 c16 -8 40 -28 55 -45 46 -56 34 -162 -26 -217 -81 -76 -236
-66 -288 19 -36 59 -18 161 36 209 56 49 164 65 223 34z m-1906 -159 c121 -34
191 -86 234 -174 26 -53 28 -65 28 -182 -1 -106 -4 -134 -24 -182 -53 -136
-153 -227 -311 -282 -77 -27 -100 -30 -242 -34 -87 -2 -158 -5 -159 -6 0 0
-19 -95 -42 -211 l-42 -210 -162 -3 c-90 -1 -163 1 -163 5 0 9 245 1241 255
1282 l6 23 282 -5 c220 -3 295 -8 340 -21z m3687 11 c0 -7 -11 -71 -25 -142
-14 -72 -25 -133 -25 -137 0 -5 47 -8 105 -8 123 0 114 15 82 -145 l-23 -110
-111 -3 c-76 -2 -112 -6 -116 -15 -2 -7 -21 -100 -42 -207 -45 -229 -44 -261
11 -287 29 -14 42 -15 77 -6 23 6 43 10 44 9 5 -5 53 -193 53 -208 0 -45 -269
-76 -373 -43 -67 21 -120 63 -150 118 -19 37 -22 56 -21 157 1 95 8 147 41
295 l39 180 -63 3 c-35 2 -63 4 -63 6 0 5 38 195 45 224 5 19 12 22 49 22 100
0 96 -4 145 153 25 78 46 145 49 150 2 4 64 7 138 7 103 0 134 -3 134 -13z
m-2732 -293 c30 -15 63 -41 76 -60 l23 -34 23 50 23 50 129 0 c115 0 128 -2
128 -17 -1 -10 -45 -236 -98 -503 l-98 -485 -132 -3 -132 -3 0 61 0 60 -69
-50 c-83 -61 -160 -90 -238 -90 -112 1 -185 46 -232 143 -81 164 -55 435 60
630 130 220 372 333 537 251z m1898 7 c85 -39 124 -115 124 -244 0 -45 -23
-185 -66 -401 -36 -182 -67 -339 -70 -348 -5 -16 -22 -18 -165 -18 -148 0
-159 1 -159 19 0 10 29 163 65 339 35 177 62 329 58 339 -13 38 -36 53 -77 53
-45 0 -81 -19 -138 -71 l-36 -34 -56 -295 c-31 -162 -59 -307 -62 -322 l-6
-28 -157 0 c-87 0 -160 2 -163 5 -3 3 40 230 95 505 l100 500 133 0 134 0 0
-65 0 -65 46 35 c64 49 127 85 177 100 64 20 174 18 223 -4z m-936 -4 c0 -1
-45 -227 -100 -502 -55 -275 -100 -501 -100 -502 0 -5 -317 -3 -322 2 -3 3 40
230 95 505 l100 500 163 0 c90 0 164 -1 164 -3z m-2220 -1312 c0 -8 -20 -115
-45 -236 -25 -122 -45 -225 -45 -230 0 -5 84 -9 189 -9 l189 0 47 245 47 245
164 0 c90 0 164 -1 164 -3 0 -1 -58 -295 -130 -652 -71 -357 -130 -651 -130
-652 0 -6 -317 -3 -322 2 -4 5 68 375 97 503 l5 22 -190 0 c-104 0 -190 -1
-191 -2 0 -2 -24 -120 -52 -263 l-52 -260 -163 -3 c-89 -1 -162 1 -162 5 0 9
245 1240 255 1281 5 22 8 22 165 22 136 0 160 -2 160 -15z m2498 -291 c30 -15
63 -41 76 -60 l23 -34 23 50 23 50 129 0 c115 0 128 -2 128 -17 -1 -10 -45
-236 -98 -503 l-98 -485 -132 -3 -132 -3 0 61 0 61 -52 -40 c-86 -63 -155 -93
-228 -99 -125 -9 -208 37 -260 141 -80 164 -54 435 62 632 129 218 372 331
536 249z m-1273 -16 c-26 -113 -126 -630 -127 -656 0 -75 84 -98 158 -43 79
58 77 52 139 376 31 165 59 310 62 323 5 22 7 22 170 22 152 0 164 -1 159 -17
-3 -10 -46 -227 -96 -483 -49 -256 -92 -475 -95 -487 -5 -22 -9 -23 -135 -23
l-129 0 -3 65 -3 65 -50 -40 c-83 -66 -169 -103 -250 -108 -121 -7 -192 26
-238 112 -19 36 -22 56 -21 151 1 94 11 158 68 435 36 178 66 325 66 327 0 2
74 3 165 3 l165 0 -5 -22z"/>
<path d="M691 3524 c-18 -93 -34 -178 -38 -188 -5 -18 0 -19 93 -13 55 3 117
12 138 19 145 47 187 260 64 324 -22 12 -64 19 -129 22 l-96 4 -32 -168z"/>
<path d="M1902 3399 c-18 -6 -50 -27 -70 -47 -107 -107 -150 -377 -71 -448 47
-42 152 -6 198 70 29 47 90 349 75 373 -14 22 -53 50 -79 56 -11 3 -35 1 -53
-4z"/>
<path d="M3142 1799 c-18 -6 -50 -27 -70 -47 -107 -107 -150 -377 -71 -448 47
-42 152 -6 198 70 14 22 34 94 53 195 28 138 30 163 19 184 -22 41 -76 61
-129 46z"/>
</g>
</svg>
